<?xml version="1.0" encoding="UTF-8" standalone="no"?>
<svg
   xmlns:dc="http://purl.org/dc/elements/1.1/"
   xmlns:cc="http://creativecommons.org/ns#"
   xmlns:rdf="http://www.w3.org/1999/02/22-rdf-syntax-ns#"
   xmlns:svg="http://www.w3.org/2000/svg"
   xmlns="http://www.w3.org/2000/svg"
   xmlns:sodipodi="http://sodipodi.sourceforge.net/DTD/sodipodi-0.dtd"
   xmlns:inkscape="http://www.inkscape.org/namespaces/inkscape"
   inkscape:version="1.0 (4035a4fb49, 2020-05-01)"
   sodipodi:docname="avataaars.svg"
   xml:space="preserve"
   style="enable-background:new 0 0 264 280;"
   viewBox="0 0 264 280"
   y="0px"
   x="0px"
   id="Layer_1"
   version="1.1"><metadata
   id="metadata183"><rdf:RDF><cc:Work
       rdf:about=""><dc:format>image/svg+xml</dc:format><dc:type
         rdf:resource="http://purl.org/dc/dcmitype/StillImage" /></cc:Work></rdf:RDF></metadata><defs
   id="defs181">
			
			
			<defs
   id="defs27">
				<filter
   id="Adobe_OpacityMaskFilter_1_"
   filterUnits="userSpaceOnUse"
   x="-1"
   y="0"
   width="265"
   height="280">
					<feColorMatrix
   type="matrix"
   values="1 0 0 0 0  0 1 0 0 0  0 0 1 0 0  0 0 0 1 0"
   id="feColorMatrix24" />
				</filter>
			</defs>
			<mask
   maskUnits="userSpaceOnUse"
   x="-1"
   y="0"
   width="265"
   height="280"
   id="mask-4_1_">
				<g
   class="st5"
   id="g30">
					<path
   id="path-3_1_"
   class="st2"
   d="M12,160c0,66.3,53.7,120,120,120s120-53.7,120-120h12V0H0v160H12z" />
				</g>
			</mask>
			
		<mask
   id="mask1364"
   maskUnits="userSpaceOnUse"><g
     id="g1392">
	<g
   transform="translate(-825,-1100)"
   id="g1390">
		<g
   transform="translate(837,1140)"
   id="g1386">
				<g
   id="g1368">
					<circle
   id="circle1366"
   r="120"
   cy="120"
   cx="120"
   class="st0" />
				</g>
				<defs
   id="defs1374">
					<filter
   height="240"
   width="240"
   y="0"
   x="0"
   filterUnits="userSpaceOnUse"
   id="filter1372">
						<feColorMatrix
   id="feColorMatrix1370"
   values="1 0 0 0 0  0 1 0 0 0  0 0 1 0 0  0 0 0 1 0"
   type="matrix" />
					</filter>
				</defs>
				<mask
   id="mask1380"
   height="240"
   width="240"
   y="0"
   x="0"
   maskUnits="userSpaceOnUse">
					<g
   id="g1378"
   class="st1">
						<circle
   r="120"
   cy="120"
   cx="120"
   class="st2"
   id="circle1376" />
					</g>
				</mask>
				<g
   id="g1384"
   mask="url(#mask-2_1_)"
   class="st3">
					<rect
   y="0"
   x="0"
   id="rect1382"
   height="240"
   width="240"
   class="st4" />
				</g>
			</g><g
   id="g1388"
   transform="translate(825,1100)">
			</g>
	</g>
</g></mask></defs><sodipodi:namedview
   inkscape:current-layer="Layer_1"
   inkscape:window-maximized="1"
   inkscape:window-y="-8"
   inkscape:window-x="-8"
   inkscape:cy="160.09538"
   inkscape:cx="130.62842"
   inkscape:zoom="1.9064236"
   inkscape:guide-bbox="true"
   showguides="true"
   showgrid="false"
   id="namedview179"
   inkscape:window-height="705"
   inkscape:window-width="1366"
   inkscape:pageshadow="2"
   inkscape:pageopacity="0"
   guidetolerance="10"
   gridtolerance="10"
   objecttolerance="10"
   borderopacity="1"
   bordercolor="#666666"
   pagecolor="#ffffff" />
<style
   id="style2"
   type="text/css">
	.st0{fill-rule:evenodd;clip-rule:evenodd;fill:#E6E6E6;}
	.st1{filter:url(#Adobe_OpacityMaskFilter);}
	.st2{fill-rule:evenodd;clip-rule:evenodd;fill:#FFFFFF;}
	.st3{mask:url(#mask-2_1_);}
	.st4{fill-rule:evenodd;clip-rule:evenodd;fill:#2C3E50;}
	.st5{filter:url(#Adobe_OpacityMaskFilter_1_);}
	.st6{mask:url(#mask-4_1_);}
	.st7{fill-rule:evenodd;clip-rule:evenodd;fill:#D0C6AC;}
	.st8{filter:url(#Adobe_OpacityMaskFilter_2_);}
	.st9{mask:url(#mask-6_1_);}
	.st10{fill-rule:evenodd;clip-rule:evenodd;fill:#EDB98A;}
	.st11{filter:url(#Adobe_OpacityMaskFilter_3_);}
	.st12{mask:url(#mask-6_2_);fill-rule:evenodd;clip-rule:evenodd;fill-opacity:0.1;}
	.st13{filter:url(#Adobe_OpacityMaskFilter_4_);}
	.st14{mask:url(#react-mask-952_1_);}
	.st15{filter:url(#Adobe_OpacityMaskFilter_5_);}
	.st16{opacity:0.6;mask:url(#react-mask-952_2_);}
	.st17{fill-rule:evenodd;clip-rule:evenodd;fill-opacity:0.16;}
	.st18{fill-rule:evenodd;clip-rule:evenodd;fill-opacity:0.7;}
	.st19{filter:url(#Adobe_OpacityMaskFilter_6_);}
	.st20{mask:url(#react-mask-934_1_);fill-rule:evenodd;clip-rule:evenodd;fill:#FFFFFF;}
	.st21{filter:url(#Adobe_OpacityMaskFilter_7_);}
	.st22{mask:url(#react-mask-934_2_);}
	.st23{fill-rule:evenodd;clip-rule:evenodd;fill:#FF4F6D;}
	.st24{fill-rule:evenodd;clip-rule:evenodd;fill-opacity:0.6;}
	.st25{filter:url(#Adobe_OpacityMaskFilter_8_);}
	.st26{mask:url(#react-mask-925_1_);}
	.st27{fill-rule:evenodd;clip-rule:evenodd;fill:#28354B;}
	.st28{filter:url(#Adobe_OpacityMaskFilter_9_);}
	.st29{mask:url(#react-mask-924_1_);}
	.st30{fill-rule:evenodd;clip-rule:evenodd;fill:#4A312C;}
</style>
<desc
   id="desc4">Created with getavataaars.com</desc>
<g
   id="g176">
	<g
   id="g174"
   transform="translate(-825.000000, -1100.000000)">
		<g
   id="Circle"
   transform="translate(837,1140)">
				<g
   id="Circle-Background">
					<circle
   class="st0"
   cx="120"
   cy="120"
   r="120"
   id="circle6" />
				</g>
				<defs
   id="defs12">
					<filter
   id="Adobe_OpacityMaskFilter"
   filterUnits="userSpaceOnUse"
   x="0"
   y="0"
   width="240"
   height="240">
						<feColorMatrix
   type="matrix"
   values="1 0 0 0 0  0 1 0 0 0  0 0 1 0 0  0 0 0 1 0"
   id="feColorMatrix9" />
					</filter>
				</defs>
				<mask
   maskUnits="userSpaceOnUse"
   x="0"
   y="0"
   width="240"
   height="240"
   id="mask-2_1_">
					<g
   class="st1"
   id="g15">
						<circle
   id="path-1_1_"
   class="st2"
   cx="120"
   cy="120"
   r="120" />
					</g>
				</mask>
				<g
   class="st3"
   mask="url(#mask-2_1_)"
   id="g20">
					<rect
   class="st4"
   width="240"
   height="240"
   id="rect18"
   x="0"
   y="0" />
				</g>
			</g><g
   transform="translate(825,1100)"
   id="Mask">
			</g>
	</g>
</g>
<g
   transform="matrix(0.2880021,0,0,0.2880021,61.306691,89.306731)"
   id="g1052"><ellipse
     cx="400.341"
     cy="360.16699"
     fill="#766d78"
     rx="66.343002"
     ry="65.946999"
     id="ellipse1008" /><path
     d="m 400.341,294.22 c -5.161,0 -10.178,0.605 -15,1.714 29.412,6.761 51.343,32.942 51.343,64.233 0,31.291 -21.931,57.472 -51.343,64.233 4.822,1.108 9.839,1.714 15,1.714 36.64,0 66.343,-29.525 66.343,-65.947 0,-36.422 -29.703,-65.947 -66.343,-65.947 z"
     fill="#655e67"
     id="path1010" /><ellipse
     cx="400.341"
     cy="360.16699"
     fill="#ffffff"
     rx="22.362"
     ry="22.228001"
     id="ellipse1012" /><path
     d="m 490.922,353.611 c -1.157,-48.758 -41.253,-87.937 -90.581,-87.937 -49.328,0 -89.424,39.179 -90.581,87.937 z"
     fill="#9ec8fc"
     id="path1014" /><path
     d="m 400.341,265.674 c -5.111,0 -10.12,0.427 -15,1.235 42.217,6.992 74.544,42.996 75.581,86.702 h 30 c -1.157,-48.758 -41.253,-87.937 -90.581,-87.937 z"
     fill="#80b6fc"
     id="path1016" /><path
     d="M 179.823,353.611 H 315.839 L 422.876,241.18 c 16.331,-17.154 19.725,-42.888 8.4,-63.689 l -29.152,-53.544 h -41.181 l 0.992,78.695 c 0.117,9.256 -3.725,18.121 -10.557,24.366 l -36.702,33.543 c -12.405,11.337 -31.411,11.329 -43.807,-0.017 l -14.936,-13.671 c -17.139,-15.688 -26.9,-37.854 -26.9,-61.089 V 173.585 L 146.741,145.176 64.449,173.585 C 39.861,210.96 31.755,256.814 42.04,300.354 l 5.047,21.365 z"
     fill="#80b6fc"
     id="path1018" /><path
     d="m 431.276,177.491 -29.152,-53.544 h -30 l 29.152,53.544 c 11.325,20.802 7.932,46.535 -8.399,63.689 L 285.839,353.611 h 30 L 422.876,241.18 c 16.331,-17.154 19.725,-42.888 8.4,-63.689 z"
     fill="#62a4fb"
     id="path1020" /><path
     d="m 410.244,71.204 -43.117,11.369 c -6.799,1.793 -11.537,7.942 -11.537,14.974 v 11.286 c 0,9.18 7.442,16.623 16.622,16.623 h 27.209 3.524 c 9.736,-6.785 29.724,-23.813 29.945,-29.321 0.396,-9.889 -22.646,-24.931 -22.646,-24.931 z"
     fill="#80b6fc"
     id="path1022" /><path
     d="m 443.223,68.242 c -2.447,-2.861 -6.315,-4.069 -9.955,-3.11 l -23.024,6.071 c 10.575,14.961 9.808,35.408 -2.303,49.571 l -1.065,1.246 c -1.016,1.033 -3.949,3.434 -3.949,3.434 h 31.778 c 2.867,0 5.591,-1.255 7.454,-3.434 l 1.065,-1.246 c 12.931,-15.122 12.931,-37.408 -10e-4,-52.532 z"
     fill="#e3e0e4"
     id="path1024" /><circle
     cx="359.38199"
     cy="109.021"
     fill="#4981f8"
     r="20.285"
     id="circle1026" /><ellipse
     cx="89.984001"
     cy="360.16699"
     fill="#766d78"
     rx="66.343002"
     ry="65.946999"
     id="ellipse1028" /><path
     d="m 89.984,294.22 c -5.161,0 -10.177,0.605 -15,1.714 29.411,6.761 51.343,32.942 51.343,64.233 0,31.291 -21.931,57.472 -51.343,64.233 4.823,1.108 9.839,1.714 15,1.714 36.64,0 66.343,-29.525 66.343,-65.947 0,-36.422 -29.703,-65.947 -66.343,-65.947 z"
     fill="#655e67"
     id="path1030" /><ellipse
     cx="89.984001"
     cy="360.16699"
     fill="#ffffff"
     rx="22.362"
     ry="22.228001"
     id="ellipse1032" /><path
     d="M 163.252,232.933 C 137.959,224.519 112.37,226.5 89.077,233.259 39.891,247.534 5.163,290.621 0.063,340.796 c -0.2,1.968 0.075,3.959 0.861,5.774 0.014,0.032 0.028,0.065 0.042,0.097 1.823,4.206 5.954,6.943 10.538,6.943 h 168.319 c 0,10e-4 65.354,-93.422 -16.571,-120.677 z"
     fill="#62a4fb"
     id="path1034" /><path
     d="m 163.252,232.933 c -16.888,-5.618 -33.907,-6.597 -50.287,-4.619 6.751,0.871 13.529,2.371 20.287,4.619 81.925,27.255 16.571,120.678 16.571,120.678 h 30 c 0,0 65.354,-93.423 -16.571,-120.678 z"
     fill="#5392f9"
     id="path1036" /><path
     d="M 229.032,173.582 H 62.056 c -11.067,0 -20.039,-8.971 -20.039,-20.038 v -15.052 c 0,-16.277 13.195,-29.471 29.471,-29.471 H 199.56 c 16.277,0 29.471,13.195 29.471,29.471 v 35.09 z"
     fill="#f8e076"
     id="path1038" /><path
     d="m 199.561,109.021 h -30 c 16.277,0 29.471,13.195 29.471,29.471 v 35.09 h 30 v -35.09 c 0,-16.276 -13.195,-29.471 -29.471,-29.471 z"
     fill="#f7d958"
     id="path1040" /><path
     d="M 133.09,327.883 H 69.72 c -4.143,0 -7.5,-3.358 -7.5,-7.5 0,-4.142 3.357,-7.5 7.5,-7.5 h 63.37 c 4.143,0 7.5,3.358 7.5,7.5 0,4.142 -3.357,7.5 -7.5,7.5 z"
     fill="#5392f9"
     id="path1042" /><path
     d="m 149.687,297.992 h -63.37 c -4.143,0 -7.5,-3.358 -7.5,-7.5 0,-4.142 3.357,-7.5 7.5,-7.5 h 63.37 c 4.143,0 7.5,3.358 7.5,7.5 0,4.142 -3.358,7.5 -7.5,7.5 z"
     fill="#5392f9"
     id="path1044" /><g
     fill="#f3c625"
     id="g1050"><path
       d="m 155.66,109.021 h 15 v 64.562 h -15 z"
       id="path1046" /><path
       d="m 100.389,109.021 h 15 v 64.562 h -15 z"
       id="path1048" /></g></g><g
   transform="matrix(1.2683727,0,0,1.2683727,43.57414,158.16975)"
   id="g1126"><g
     id="g1086"><circle
       cx="14"
       cy="10"
       fill="#c7e2fc"
       r="8"
       id="circle1084" /></g><circle
     cx="32"
     cy="32"
     fill="#c7e2fc"
     r="17"
     id="circle1088" /><path
     d="M 48,26 C 53.523,26 58,21.523 58,16 58,10.477 53.523,6 48,6 42.477,6 38,10.477 38,16 v 0.089 c 4.562,1.721 8.19,5.349 9.911,9.911 z"
     fill="#ebf7fe"
     id="path1090" /><g
     id="g1094"><path
       d="m 46,31.999 h -2 c 0,-6.617 -5.383,-12 -12,-12 v -2 c 7.719,0.001 14,6.281 14,14 z"
       fill="#ebf7fe"
       id="path1092" /></g><circle
     cx="54"
     cy="54"
     fill="#ebf7fe"
     r="8"
     id="circle1096" /><g
     id="g1100"><path
       d="m 58.999,53.999 h -2 c 0,-1.654 -1.346,-3 -3,-3 v -2 c 2.757,10e-4 5,2.243 5,5 z"
       fill="#c7e2fc"
       id="path1098" /></g><g
     id="g1104"><path
       d="m 19,9.999 h -2 c 0,-1.654 -1.346,-3 -3,-3 V 5 c 2.757,0 5,2.242 5,4.999 z"
       fill="#ebf7fe"
       id="path1102" /></g><g
     id="g1108"><path
       d="m 54.999,15.999 h -2 c 0,-2.757 -2.243,-5 -5,-5 V 9 c 3.86,0 7,3.14 7,6.999 z"
       fill="#c7e2fc"
       id="path1106" /></g><circle
     cx="15"
     cy="58"
     fill="#c7e2fc"
     r="4"
     id="circle1110" /><circle
     cx="6"
     cy="40"
     fill="#c7e2fc"
     r="4"
     id="circle1112" /><g
     fill="#ebf7fe"
     id="g1124"><circle
       cx="9"
       cy="28"
       r="4"
       id="circle1114" /><circle
       cx="56"
       cy="35"
       r="3"
       id="circle1116" /><circle
       cx="35"
       cy="55"
       r="3"
       id="circle1118" /><circle
       cx="32"
       cy="8"
       r="2"
       id="circle1120" /><circle
       cx="14"
       cy="49"
       r="2"
       id="circle1122" /></g></g><rect
   mask="url(#mask1364)"
   y="212.43967"
   x="15.736272"
   height="70.813225"
   width="243.91222"
   id="rect1264"
   style="fill:#ececec;fill-opacity:1;stroke-width:3.40157;stroke-linecap:round;stroke-linejoin:round" /><g
   id="g1436"
   transform="matrix(-1.2683727,0,0,1.2683727,220.57731,161.58078)"><g
     id="g1396"><circle
       id="circle1394"
       r="8"
       fill="#c7e2fc"
       cy="10"
       cx="14" /></g><circle
     id="circle1398"
     r="17"
     fill="#c7e2fc"
     cy="32"
     cx="32" /><path
     id="path1400"
     fill="#ebf7fe"
     d="M 48,26 C 53.523,26 58,21.523 58,16 58,10.477 53.523,6 48,6 42.477,6 38,10.477 38,16 v 0.089 c 4.562,1.721 8.19,5.349 9.911,9.911 z" /><g
     id="g1404"><path
       id="path1402"
       fill="#ebf7fe"
       d="m 46,31.999 h -2 c 0,-6.617 -5.383,-12 -12,-12 v -2 c 7.719,0.001 14,6.281 14,14 z" /></g><circle
     id="circle1406"
     r="8"
     fill="#ebf7fe"
     cy="54"
     cx="54" /><g
     id="g1410"><path
       id="path1408"
       fill="#c7e2fc"
       d="m 58.999,53.999 h -2 c 0,-1.654 -1.346,-3 -3,-3 v -2 c 2.757,10e-4 5,2.243 5,5 z" /></g><g
     id="g1414"><path
       id="path1412"
       fill="#ebf7fe"
       d="m 19,9.999 h -2 c 0,-1.654 -1.346,-3 -3,-3 V 5 c 2.757,0 5,2.242 5,4.999 z" /></g><g
     id="g1418"><path
       id="path1416"
       fill="#c7e2fc"
       d="m 54.999,15.999 h -2 c 0,-2.757 -2.243,-5 -5,-5 V 9 c 3.86,0 7,3.14 7,6.999 z" /></g><circle
     id="circle1420"
     r="4"
     fill="#c7e2fc"
     cy="58"
     cx="15" /><circle
     id="circle1422"
     r="4"
     fill="#c7e2fc"
     cy="40"
     cx="6" /><g
     id="g1434"
     fill="#ebf7fe"><circle
       id="circle1424"
       r="4"
       cy="28"
       cx="9" /><circle
       id="circle1426"
       r="3"
       cy="35"
       cx="56" /><circle
       id="circle1428"
       r="3"
       cy="55"
       cx="35" /><circle
       id="circle1430"
       r="2"
       cy="8"
       cx="32" /><circle
       id="circle1432"
       r="2"
       cy="49"
       cx="14" /></g></g><g
   transform="matrix(-0.56113701,-0.3239726,-0.3239726,0.56113701,160.30934,247.21449)"
   id="g1480"><g
     id="g1440"><circle
       cx="14"
       cy="10"
       fill="#c7e2fc"
       r="8"
       id="circle1438" /></g><circle
     cx="32"
     cy="32"
     fill="#c7e2fc"
     r="17"
     id="circle1442" /><path
     d="M 48,26 C 53.523,26 58,21.523 58,16 58,10.477 53.523,6 48,6 42.477,6 38,10.477 38,16 v 0.089 c 4.562,1.721 8.19,5.349 9.911,9.911 z"
     fill="#ebf7fe"
     id="path1444" /><g
     id="g1448"><path
       d="m 46,31.999 h -2 c 0,-6.617 -5.383,-12 -12,-12 v -2 c 7.719,0.001 14,6.281 14,14 z"
       fill="#ebf7fe"
       id="path1446" /></g><circle
     cx="54"
     cy="54"
     fill="#ebf7fe"
     r="8"
     id="circle1450" /><g
     id="g1454"><path
       d="m 58.999,53.999 h -2 c 0,-1.654 -1.346,-3 -3,-3 v -2 c 2.757,10e-4 5,2.243 5,5 z"
       fill="#c7e2fc"
       id="path1452" /></g><g
     id="g1458"><path
       d="m 19,9.999 h -2 c 0,-1.654 -1.346,-3 -3,-3 V 5 c 2.757,0 5,2.242 5,4.999 z"
       fill="#ebf7fe"
       id="path1456" /></g><g
     id="g1462"><path
       d="m 54.999,15.999 h -2 c 0,-2.757 -2.243,-5 -5,-5 V 9 c 3.86,0 7,3.14 7,6.999 z"
       fill="#c7e2fc"
       id="path1460" /></g><circle
     cx="15"
     cy="58"
     fill="#c7e2fc"
     r="4"
     id="circle1464" /><circle
     cx="6"
     cy="40"
     fill="#c7e2fc"
     r="4"
     id="circle1466" /><g
     fill="#ebf7fe"
     id="g1478"><circle
       cx="9"
       cy="28"
       r="4"
       id="circle1468" /><circle
       cx="56"
       cy="35"
       r="3"
       id="circle1470" /><circle
       cx="35"
       cy="55"
       r="3"
       id="circle1472" /><circle
       cx="32"
       cy="8"
       r="2"
       id="circle1474" /><circle
       cx="14"
       cy="49"
       r="2"
       id="circle1476" /></g></g><g
   id="g1524"
   transform="matrix(-0.39810985,-0.22984882,-0.22984882,0.39810985,111.3647,247.09398)"><g
     id="g1484"><circle
       id="circle1482"
       r="8"
       fill="#c7e2fc"
       cy="10"
       cx="14" /></g><circle
     id="circle1486"
     r="17"
     fill="#c7e2fc"
     cy="32"
     cx="32" /><path
     id="path1488"
     fill="#ebf7fe"
     d="M 48,26 C 53.523,26 58,21.523 58,16 58,10.477 53.523,6 48,6 42.477,6 38,10.477 38,16 v 0.089 c 4.562,1.721 8.19,5.349 9.911,9.911 z" /><g
     id="g1492"><path
       id="path1490"
       fill="#ebf7fe"
       d="m 46,31.999 h -2 c 0,-6.617 -5.383,-12 -12,-12 v -2 c 7.719,0.001 14,6.281 14,14 z" /></g><circle
     id="circle1494"
     r="8"
     fill="#ebf7fe"
     cy="54"
     cx="54" /><g
     id="g1498"><path
       id="path1496"
       fill="#c7e2fc"
       d="m 58.999,53.999 h -2 c 0,-1.654 -1.346,-3 -3,-3 v -2 c 2.757,10e-4 5,2.243 5,5 z" /></g><g
     id="g1502"><path
       id="path1500"
       fill="#ebf7fe"
       d="m 19,9.999 h -2 c 0,-1.654 -1.346,-3 -3,-3 V 5 c 2.757,0 5,2.242 5,4.999 z" /></g><g
     id="g1506"><path
       id="path1504"
       fill="#c7e2fc"
       d="m 54.999,15.999 h -2 c 0,-2.757 -2.243,-5 -5,-5 V 9 c 3.86,0 7,3.14 7,6.999 z" /></g><circle
     id="circle1508"
     r="4"
     fill="#c7e2fc"
     cy="58"
     cx="15" /><circle
     id="circle1510"
     r="4"
     fill="#c7e2fc"
     cy="40"
     cx="6" /><g
     id="g1522"
     fill="#ebf7fe"><circle
       id="circle1512"
       r="4"
       cy="28"
       cx="9" /><circle
       id="circle1514"
       r="3"
       cy="35"
       cx="56" /><circle
       id="circle1516"
       r="3"
       cy="55"
       cx="35" /><circle
       id="circle1518"
       r="2"
       cy="8"
       cx="32" /><circle
       id="circle1520"
       r="2"
       cy="49"
       cx="14" /></g></g><g
   transform="matrix(-0.39810985,-0.22984882,-0.22984882,0.39810985,193.71786,247.09398)"
   id="g1568"><g
     id="g1528"><circle
       cx="14"
       cy="10"
       fill="#c7e2fc"
       r="8"
       id="circle1526" /></g><circle
     cx="32"
     cy="32"
     fill="#c7e2fc"
     r="17"
     id="circle1530" /><path
     d="M 48,26 C 53.523,26 58,21.523 58,16 58,10.477 53.523,6 48,6 42.477,6 38,10.477 38,16 v 0.089 c 4.562,1.721 8.19,5.349 9.911,9.911 z"
     fill="#ebf7fe"
     id="path1532" /><g
     id="g1536"><path
       d="m 46,31.999 h -2 c 0,-6.617 -5.383,-12 -12,-12 v -2 c 7.719,0.001 14,6.281 14,14 z"
       fill="#ebf7fe"
       id="path1534" /></g><circle
     cx="54"
     cy="54"
     fill="#ebf7fe"
     r="8"
     id="circle1538" /><g
     id="g1542"><path
       d="m 58.999,53.999 h -2 c 0,-1.654 -1.346,-3 -3,-3 v -2 c 2.757,10e-4 5,2.243 5,5 z"
       fill="#c7e2fc"
       id="path1540" /></g><g
     id="g1546"><path
       d="m 19,9.999 h -2 c 0,-1.654 -1.346,-3 -3,-3 V 5 c 2.757,0 5,2.242 5,4.999 z"
       fill="#ebf7fe"
       id="path1544" /></g><g
     id="g1550"><path
       d="m 54.999,15.999 h -2 c 0,-2.757 -2.243,-5 -5,-5 V 9 c 3.86,0 7,3.14 7,6.999 z"
       fill="#c7e2fc"
       id="path1548" /></g><circle
     cx="15"
     cy="58"
     fill="#c7e2fc"
     r="4"
     id="circle1552" /><circle
     cx="6"
     cy="40"
     fill="#c7e2fc"
     r="4"
     id="circle1554" /><g
     fill="#ebf7fe"
     id="g1566"><circle
       cx="9"
       cy="28"
       r="4"
       id="circle1556" /><circle
       cx="56"
       cy="35"
       r="3"
       id="circle1558" /><circle
       cx="35"
       cy="55"
       r="3"
       id="circle1560" /><circle
       cx="32"
       cy="8"
       r="2"
       id="circle1562" /><circle
       cx="14"
       cy="49"
       r="2"
       id="circle1564" /></g></g><g
   id="g1612"
   transform="matrix(0.58646759,0,0,0.58646759,110.41778,136.36637)"><g
     id="g1572"><circle
       id="circle1570"
       r="8"
       fill="#c7e2fc"
       cy="10"
       cx="14" /></g><circle
     id="circle1574"
     r="17"
     fill="#c7e2fc"
     cy="32"
     cx="32" /><path
     id="path1576"
     fill="#ebf7fe"
     d="M 48,26 C 53.523,26 58,21.523 58,16 58,10.477 53.523,6 48,6 42.477,6 38,10.477 38,16 v 0.089 c 4.562,1.721 8.19,5.349 9.911,9.911 z" /><g
     id="g1580"><path
       id="path1578"
       fill="#ebf7fe"
       d="m 46,31.999 h -2 c 0,-6.617 -5.383,-12 -12,-12 v -2 c 7.719,0.001 14,6.281 14,14 z" /></g><circle
     id="circle1582"
     r="8"
     fill="#ebf7fe"
     cy="54"
     cx="54" /><g
     id="g1586"><path
       id="path1584"
       fill="#c7e2fc"
       d="m 58.999,53.999 h -2 c 0,-1.654 -1.346,-3 -3,-3 v -2 c 2.757,10e-4 5,2.243 5,5 z" /></g><g
     id="g1590"><path
       id="path1588"
       fill="#ebf7fe"
       d="m 19,9.999 h -2 c 0,-1.654 -1.346,-3 -3,-3 V 5 c 2.757,0 5,2.242 5,4.999 z" /></g><g
     id="g1594"><path
       id="path1592"
       fill="#c7e2fc"
       d="m 54.999,15.999 h -2 c 0,-2.757 -2.243,-5 -5,-5 V 9 c 3.86,0 7,3.14 7,6.999 z" /></g><circle
     id="circle1596"
     r="4"
     fill="#c7e2fc"
     cy="58"
     cx="15" /><circle
     id="circle1598"
     r="4"
     fill="#c7e2fc"
     cy="40"
     cx="6" /><g
     id="g1610"
     fill="#ebf7fe"><circle
       id="circle1600"
       r="4"
       cy="28"
       cx="9" /><circle
       id="circle1602"
       r="3"
       cy="35"
       cx="56" /><circle
       id="circle1604"
       r="3"
       cy="55"
       cx="35" /><circle
       id="circle1606"
       r="2"
       cy="8"
       cx="32" /><circle
       id="circle1608"
       r="2"
       cy="49"
       cx="14" /></g></g><g
   transform="matrix(0.53701326,0,0,0.53701326,18.197228,136.46528)"
   id="g1656"><g
     id="g1616"><circle
       cx="14"
       cy="10"
       fill="#c7e2fc"
       r="8"
       id="circle1614" /></g><circle
     cx="32"
     cy="32"
     fill="#c7e2fc"
     r="17"
     id="circle1618" /><path
     d="M 48,26 C 53.523,26 58,21.523 58,16 58,10.477 53.523,6 48,6 42.477,6 38,10.477 38,16 v 0.089 c 4.562,1.721 8.19,5.349 9.911,9.911 z"
     fill="#ebf7fe"
     id="path1620" /><g
     id="g1624"><path
       d="m 46,31.999 h -2 c 0,-6.617 -5.383,-12 -12,-12 v -2 c 7.719,0.001 14,6.281 14,14 z"
       fill="#ebf7fe"
       id="path1622" /></g><circle
     cx="54"
     cy="54"
     fill="#ebf7fe"
     r="8"
     id="circle1626" /><g
     id="g1630"><path
       d="m 58.999,53.999 h -2 c 0,-1.654 -1.346,-3 -3,-3 v -2 c 2.757,10e-4 5,2.243 5,5 z"
       fill="#c7e2fc"
       id="path1628" /></g><g
     id="g1634"><path
       d="m 19,9.999 h -2 c 0,-1.654 -1.346,-3 -3,-3 V 5 c 2.757,0 5,2.242 5,4.999 z"
       fill="#ebf7fe"
       id="path1632" /></g><g
     id="g1638"><path
       d="m 54.999,15.999 h -2 c 0,-2.757 -2.243,-5 -5,-5 V 9 c 3.86,0 7,3.14 7,6.999 z"
       fill="#c7e2fc"
       id="path1636" /></g><circle
     cx="15"
     cy="58"
     fill="#c7e2fc"
     r="4"
     id="circle1640" /><circle
     cx="6"
     cy="40"
     fill="#c7e2fc"
     r="4"
     id="circle1642" /><g
     fill="#ebf7fe"
     id="g1654"><circle
       cx="9"
       cy="28"
       r="4"
       id="circle1644" /><circle
       cx="56"
       cy="35"
       r="3"
       id="circle1646" /><circle
       cx="35"
       cy="55"
       r="3"
       id="circle1648" /><circle
       cx="32"
       cy="8"
       r="2"
       id="circle1650" /><circle
       cx="14"
       cy="49"
       r="2"
       id="circle1652" /></g></g><g
   id="g1700"
   transform="matrix(0.57196924,0,0,0.57196924,215.28932,135.78981)"><g
     id="g1660"><circle
       id="circle1658"
       r="8"
       fill="#c7e2fc"
       cy="10"
       cx="14" /></g><circle
     id="circle1662"
     r="17"
     fill="#c7e2fc"
     cy="32"
     cx="32" /><path
     id="path1664"
     fill="#ebf7fe"
     d="M 48,26 C 53.523,26 58,21.523 58,16 58,10.477 53.523,6 48,6 42.477,6 38,10.477 38,16 v 0.089 c 4.562,1.721 8.19,5.349 9.911,9.911 z" /><g
     id="g1668"><path
       id="path1666"
       fill="#ebf7fe"
       d="m 46,31.999 h -2 c 0,-6.617 -5.383,-12 -12,-12 v -2 c 7.719,0.001 14,6.281 14,14 z" /></g><circle
     id="circle1670"
     r="8"
     fill="#ebf7fe"
     cy="54"
     cx="54" /><g
     id="g1674"><path
       id="path1672"
       fill="#c7e2fc"
       d="m 58.999,53.999 h -2 c 0,-1.654 -1.346,-3 -3,-3 v -2 c 2.757,10e-4 5,2.243 5,5 z" /></g><g
     id="g1678"><path
       id="path1676"
       fill="#ebf7fe"
       d="m 19,9.999 h -2 c 0,-1.654 -1.346,-3 -3,-3 V 5 c 2.757,0 5,2.242 5,4.999 z" /></g><g
     id="g1682"><path
       id="path1680"
       fill="#c7e2fc"
       d="m 54.999,15.999 h -2 c 0,-2.757 -2.243,-5 -5,-5 V 9 c 3.86,0 7,3.14 7,6.999 z" /></g><circle
     id="circle1684"
     r="4"
     fill="#c7e2fc"
     cy="58"
     cx="15" /><circle
     id="circle1686"
     r="4"
     fill="#c7e2fc"
     cy="40"
     cx="6" /><g
     id="g1698"
     fill="#ebf7fe"><circle
       id="circle1688"
       r="4"
       cy="28"
       cx="9" /><circle
       id="circle1690"
       r="3"
       cy="35"
       cx="56" /><circle
       id="circle1692"
       r="3"
       cy="55"
       cx="35" /><circle
       id="circle1694"
       r="2"
       cy="8"
       cx="32" /><circle
       id="circle1696"
       r="2"
       cy="49"
       cx="14" /></g></g><g
   transform="matrix(-0.39810985,-0.22984882,-0.22984882,0.39810985,55.916842,180.65709)"
   id="g1744"><g
     id="g1704"><circle
       cx="14"
       cy="10"
       fill="#c7e2fc"
       r="8"
       id="circle1702" /></g><circle
     cx="32"
     cy="32"
     fill="#c7e2fc"
     r="17"
     id="circle1706" /><path
     d="M 48,26 C 53.523,26 58,21.523 58,16 58,10.477 53.523,6 48,6 42.477,6 38,10.477 38,16 v 0.089 c 4.562,1.721 8.19,5.349 9.911,9.911 z"
     fill="#ebf7fe"
     id="path1708" /><g
     id="g1712"><path
       d="m 46,31.999 h -2 c 0,-6.617 -5.383,-12 -12,-12 v -2 c 7.719,0.001 14,6.281 14,14 z"
       fill="#ebf7fe"
       id="path1710" /></g><circle
     cx="54"
     cy="54"
     fill="#ebf7fe"
     r="8"
     id="circle1714" /><g
     id="g1718"><path
       d="m 58.999,53.999 h -2 c 0,-1.654 -1.346,-3 -3,-3 v -2 c 2.757,10e-4 5,2.243 5,5 z"
       fill="#c7e2fc"
       id="path1716" /></g><g
     id="g1722"><path
       d="m 19,9.999 h -2 c 0,-1.654 -1.346,-3 -3,-3 V 5 c 2.757,0 5,2.242 5,4.999 z"
       fill="#ebf7fe"
       id="path1720" /></g><g
     id="g1726"><path
       d="m 54.999,15.999 h -2 c 0,-2.757 -2.243,-5 -5,-5 V 9 c 3.86,0 7,3.14 7,6.999 z"
       fill="#c7e2fc"
       id="path1724" /></g><circle
     cx="15"
     cy="58"
     fill="#c7e2fc"
     r="4"
     id="circle1728" /><circle
     cx="6"
     cy="40"
     fill="#c7e2fc"
     r="4"
     id="circle1730" /><g
     fill="#ebf7fe"
     id="g1742"><circle
       cx="9"
       cy="28"
       r="4"
       id="circle1732" /><circle
       cx="56"
       cy="35"
       r="3"
       id="circle1734" /><circle
       cx="35"
       cy="55"
       r="3"
       id="circle1736" /><circle
       cx="32"
       cy="8"
       r="2"
       id="circle1738" /><circle
       cx="14"
       cy="49"
       r="2"
       id="circle1740" /></g></g><g
   id="g1788"
   transform="matrix(-0.39810985,-0.22984882,-0.22984882,0.39810985,250.89298,183.62435)"><g
     id="g1748"><circle
       id="circle1746"
       r="8"
       fill="#c7e2fc"
       cy="10"
       cx="14" /></g><circle
     id="circle1750"
     r="17"
     fill="#c7e2fc"
     cy="32"
     cx="32" /><path
     id="path1752"
     fill="#ebf7fe"
     d="M 48,26 C 53.523,26 58,21.523 58,16 58,10.477 53.523,6 48,6 42.477,6 38,10.477 38,16 v 0.089 c 4.562,1.721 8.19,5.349 9.911,9.911 z" /><g
     id="g1756"><path
       id="path1754"
       fill="#ebf7fe"
       d="m 46,31.999 h -2 c 0,-6.617 -5.383,-12 -12,-12 v -2 c 7.719,0.001 14,6.281 14,14 z" /></g><circle
     id="circle1758"
     r="8"
     fill="#ebf7fe"
     cy="54"
     cx="54" /><g
     id="g1762"><path
       id="path1760"
       fill="#c7e2fc"
       d="m 58.999,53.999 h -2 c 0,-1.654 -1.346,-3 -3,-3 v -2 c 2.757,10e-4 5,2.243 5,5 z" /></g><g
     id="g1766"><path
       id="path1764"
       fill="#ebf7fe"
       d="m 19,9.999 h -2 c 0,-1.654 -1.346,-3 -3,-3 V 5 c 2.757,0 5,2.242 5,4.999 z" /></g><g
     id="g1770"><path
       id="path1768"
       fill="#c7e2fc"
       d="m 54.999,15.999 h -2 c 0,-2.757 -2.243,-5 -5,-5 V 9 c 3.86,0 7,3.14 7,6.999 z" /></g><circle
     id="circle1772"
     r="4"
     fill="#c7e2fc"
     cy="58"
     cx="15" /><circle
     id="circle1774"
     r="4"
     fill="#c7e2fc"
     cy="40"
     cx="6" /><g
     id="g1786"
     fill="#ebf7fe"><circle
       id="circle1776"
       r="4"
       cy="28"
       cx="9" /><circle
       id="circle1778"
       r="3"
       cy="35"
       cx="56" /><circle
       id="circle1780"
       r="3"
       cy="55"
       cx="35" /><circle
       id="circle1782"
       r="2"
       cy="8"
       cx="32" /><circle
       id="circle1784"
       r="2"
       cy="49"
       cx="14" /></g></g><g
   id="g1832"
   transform="matrix(-0.32554821,-0.18795533,-0.18795533,0.32554821,219.75015,144.52719)"><g
     id="g1792"><circle
       id="circle1790"
       r="8"
       fill="#c7e2fc"
       cy="10"
       cx="14" /></g><circle
     id="circle1794"
     r="17"
     fill="#c7e2fc"
     cy="32"
     cx="32" /><path
     id="path1796"
     fill="#ebf7fe"
     d="M 48,26 C 53.523,26 58,21.523 58,16 58,10.477 53.523,6 48,6 42.477,6 38,10.477 38,16 v 0.089 c 4.562,1.721 8.19,5.349 9.911,9.911 z" /><g
     id="g1800"><path
       id="path1798"
       fill="#ebf7fe"
       d="m 46,31.999 h -2 c 0,-6.617 -5.383,-12 -12,-12 v -2 c 7.719,0.001 14,6.281 14,14 z" /></g><circle
     id="circle1802"
     r="8"
     fill="#ebf7fe"
     cy="54"
     cx="54" /><g
     id="g1806"><path
       id="path1804"
       fill="#c7e2fc"
       d="m 58.999,53.999 h -2 c 0,-1.654 -1.346,-3 -3,-3 v -2 c 2.757,10e-4 5,2.243 5,5 z" /></g><g
     id="g1810"><path
       id="path1808"
       fill="#ebf7fe"
       d="m 19,9.999 h -2 c 0,-1.654 -1.346,-3 -3,-3 V 5 c 2.757,0 5,2.242 5,4.999 z" /></g><g
     id="g1814"><path
       id="path1812"
       fill="#c7e2fc"
       d="m 54.999,15.999 h -2 c 0,-2.757 -2.243,-5 -5,-5 V 9 c 3.86,0 7,3.14 7,6.999 z" /></g><circle
     id="circle1816"
     r="4"
     fill="#c7e2fc"
     cy="58"
     cx="15" /><circle
     id="circle1818"
     r="4"
     fill="#c7e2fc"
     cy="40"
     cx="6" /><g
     id="g1830"
     fill="#ebf7fe"><circle
       id="circle1820"
       r="4"
       cy="28"
       cx="9" /><circle
       id="circle1822"
       r="3"
       cy="35"
       cx="56" /><circle
       id="circle1824"
       r="3"
       cy="55"
       cx="35" /><circle
       id="circle1826"
       r="2"
       cy="8"
       cx="32" /><circle
       id="circle1828"
       r="2"
       cy="49"
       cx="14" /></g></g></svg>
